<svg xmlns="http://www.w3.org/2000/svg" viewBox="0 0 1940.62 2581.71"><defs><style>.cls-1{fill:#ff9906;}.cls-2{fill:#ff9a04;stroke:#000;stroke-miterlimit:10;stroke-width:20px;}.cls-3{fill:#181818;}.cls-4{fill:#fffae6;}</style></defs><title>tapDrink</title><g id="Camada_2" data-name="Camada 2"><g id="Camada_1-2" data-name="Camada 1"><path class="cls-1" d="M1172.66,1271.34c-47-139.56-198.31-214.57-337.87-167.52-130.8,44.09-206.34,180.71-174.12,314.93,96,333.76,447.14,633.28,768.74,887.79a53.34,53.34,0,0,0,66.24-83.63c-308.7-244.27-645.23-530.24-732.48-833.6a160.09,160.09,0,0,1,307.73-88.43c58.24,202.67,347.84,453.12,623.36,671.15a53.34,53.34,0,1,0,66.24-83.63C1615,1773.52,1229.73,1468.67,1172.66,1271.34Z"/><path class="cls-1" d="M1576.94,1133.84c-116-355.5-491.62-556.31-851.63-455.25C357.25,784.2,144.49,1168.19,250.1,1536.26c.08.26.15.52.23.78,87.57,304.22-100.16,388.59-160,407.15a53.34,53.34,0,1,0,32,101.76c163.09-51,321.49-222.51,230.5-538.46-89.7-311.34,90-636.45,401.32-726.15l.49-.14c307.84-86.53,628.58,87.94,723.2,393.39a50.43,50.43,0,0,0,5.33,11.84c5.55,9.17,17,28.48,359.79,306.66a53.34,53.34,0,1,0,67.3-82.77C1785.68,1309.2,1603.6,1158.91,1576.94,1133.84Z"/><path class="cls-1" d="M1377.89,1212.35C1304.23,958,1038.74,811,784.08,883.71c-250.06,77.2-395.19,337.4-329.5,590.72,107.74,490.66,27.2,603.94-193.81,673.06a53.34,53.34,0,1,0,32,101.76c308.8-96,375.89-297.81,266.66-797.76-53.06-198.24,59.13-403.17,254.72-465.28,198.2-56.26,404.61,58.12,462,256,21.33,72.75,78,172.59,514.77,518.3a53.34,53.34,0,1,0,66.24-83.63C1460.67,1363.28,1392.83,1264,1377.89,1212.35Z"/><path class="cls-1" d="M1524.66,1954.75c-180.48-137-482.56-366.08-556.9-624.43a53.34,53.34,0,0,0-102.51,29.44c84.06,292.48,403.84,535,594.88,680a1414.58,1414.58,0,0,1,112,89.6,53.33,53.33,0,0,0,75.42-75.41A1401.33,1401.33,0,0,0,1524.66,1954.75Z"/><path class="cls-1" d="M1236,2325.74A348.35,348.35,0,0,0,970,2145c-181.33,0-209.38,308.27-213.33,370a53.33,53.33,0,0,0,49.92,56.53H810a53.32,53.32,0,0,0,53.33-50c6.72-109.87,48.75-269.87,106.67-269.87,79,0,135.14,76.16,180.16,137.28a575.51,575.51,0,0,0,48.75,60.38,53.33,53.33,0,0,0,75.41-75.42A474,474,0,0,1,1236,2325.74Z"/><path class="cls-1" d="M754.21,1862.16a53.33,53.33,0,0,0-101.65,32c45.66,142.62-44,422.51-179,466.35a53.33,53.33,0,0,0,31.86,101.8l1.1-.36C711.76,2395.82,810.74,2039.34,754.21,1862.16Z"/><path class="cls-1" d="M1893.09,1134.27c-66.66-21.34-119-106.67-179.73-204.06-128.42-207.57-304.54-491.84-796.69-491.84C416.17,439,10.58,844.55,10,1345a53.34,53.34,0,1,0,106.67,0c.47-441.63,358.36-799.53,800-800,432.75,0,584.32,244.7,706.13,441.39,71.68,115.73,133.55,215.68,237.44,249.38a53.33,53.33,0,0,0,34.07-101.08l-1.11-.36Z"/><path class="cls-1" d="M116.67,1771.71a53.34,53.34,0,0,0,47.68-77.23,472.43,472.43,0,0,1-47.68-136.1,53.34,53.34,0,1,0-106.67,0,545.09,545.09,0,0,0,59,183.89A53.36,53.36,0,0,0,116.67,1771.71Z"/><path class="cls-1" d="M88.94,643.92a53.32,53.32,0,0,0,73.29-17.77l.09-.15c46.29-76.37,274.35-294.29,701-294.29,410,0,701.76,207.68,754.35,294.29a53.34,53.34,0,1,0,91.2-55.36h0C1635.71,450.11,1312.62,225,863.34,225,385.58,225,129.47,474.54,71,570.75A53.32,53.32,0,0,0,88.94,643.92Z"/><path class="cls-1" d="M404.67,220.35c24.42-10.67,45.12-21.34,64.74-32,80.22-40.43,137.92-70,393.92-70a1209.87,1209.87,0,0,1,507,81.18c20.38,7.57,40.86,15.14,62.3,22.5a54.12,54.12,0,0,0,17.38,3,53.34,53.34,0,0,0,17.39-103.79c-20.7-7.14-40.32-14.4-60-21.33a1315.09,1315.09,0,0,0-544.1-88.21C581.31,11.71,510.69,48,421.1,94c-18,9.28-37.23,19.09-59.63,29.12a53.33,53.33,0,1,0,39.39,99.12c1.4-.55,2.78-1.17,4.13-1.84Z"/><path class="cls-1" d="M1825.78,934.59a53.34,53.34,0,0,0,101.66-32,1345.54,1345.54,0,0,0-112.11-225.07,53.35,53.35,0,0,0-90.88,55.89A1261.93,1261.93,0,0,1,1825.78,934.59Z"/><path class="cls-2" d="M1462.16,2318.06a53.35,53.35,0,0,1-33.07-11.52c-321.6-254.62-672.42-554-768.42-887.79-34.38-143.21,53.85-287.16,197.06-321.54,134.23-32.21,270.85,43.32,314.94,174.13,56.74,197.22,442,502.18,586.66,617a53.33,53.33,0,1,1-63.56,85.65c-.87-.65-1.73-1.33-2.57-2-275.52-218-565.33-468.37-623.47-671.14a160,160,0,1,0-307.62,88.42c87.26,303.36,423.79,589.34,732.38,833.6a53.34,53.34,0,0,1-33.18,95.15Z"/><path class="cls-2" d="M106,2048.08a53.33,53.33,0,0,1-15.89-104.21c59.62-18.67,247.36-103,160-407.15-105.85-368,106.66-752.12,474.65-858l.55-.16c360-101.13,735.78,99.7,851.74,455.26,26.56,25,208.64,175.36,333.22,276.48a53.33,53.33,0,0,1-67.2,82.77c-342.93-278.29-354.34-297.6-359.89-306.77a53.67,53.67,0,0,1-5.23-11.74c-94.62-305.5-415.43-480-723.3-393.38-311.41,89.47-491.32,414.45-401.85,725.86l0,.11c90.88,315.84-67.41,487.46-230.61,538.45A52.52,52.52,0,0,1,106,2048.08Z"/><path class="cls-2" d="M276.67,2251.71a53.34,53.34,0,0,1-15.9-104.22c221-69.12,301.45-182.61,193.71-673.06C388.84,1221.11,534,961,784,883.71c254.67-72.48,520.05,74.37,593.91,328.64,14.83,51.52,82.56,150.82,478.4,464.21a53.33,53.33,0,0,1-63.56,85.66c-.87-.65-1.73-1.33-2.57-2-437.34-345.82-494-445.76-514.78-518.3-57.16-198.09-263.82-312.58-462.08-256-195.81,62.16-308,267.43-254.61,465.82C668.45,1951.76,601.35,2153,292,2249.47A52.52,52.52,0,0,1,276.67,2251.71Z"/><path class="cls-2" d="M1610,2145a53.3,53.3,0,0,1-37.76-15.57,1423.72,1423.72,0,0,0-112-89.71c-191-145-510.82-387.52-594.88-680a53.34,53.34,0,1,1,102-31.22c.18.59.35,1.18.51,1.78,74.66,258.34,376.32,487.46,556.8,624.42a1409,1409,0,0,1,123,99.31,53.34,53.34,0,0,1-37.65,91Z"/><path class="cls-2" d="M810,2571.71h-3.42a53.33,53.33,0,0,1-49.91-56.54c3.84-61.76,32-370,213.33-370A348.78,348.78,0,0,1,1236.67,2326a458.11,458.11,0,0,0,38.18,48.21,53.33,53.33,0,0,1-75.41,75.42,558.31,558.31,0,0,1-48.75-60.27c-45.44-61.44-101.54-137.6-180.69-137.6-57.82,0-100,160-106.67,270A53.33,53.33,0,0,1,810,2571.71Z"/><path class="cls-2" d="M490,2465a53.33,53.33,0,0,1-16.43-104.1c134.83-43.84,224-323.74,179-466.35a53.33,53.33,0,1,1,99.59-38.18,51.51,51.51,0,0,1,2,6.18c56.64,177.18-42.66,533.34-247.68,600.32A53.25,53.25,0,0,1,490,2465Z"/><path class="cls-2" d="M63.33,1398.38A53.34,53.34,0,0,1,10,1345C10.59,844.55,416.17,439,916.66,438.38c492.16,0,668.27,284.26,796.81,491.84,60.69,97.81,113.06,182.4,179.73,204a53.33,53.33,0,1,1-31.86,101.8c-.37-.11-.74-.23-1.1-.36-103.9-33.7-165.76-133.65-237.44-249.38C1501,789.74,1349.41,545.05,916.66,545.05c-441.63.47-799.53,358.36-800,800A53.32,53.32,0,0,1,63.33,1398.38Z"/><path class="cls-2" d="M116.67,1771.71a53.34,53.34,0,0,1-47.79-29.44A544.3,544.3,0,0,1,10,1558.37a53.34,53.34,0,0,1,106.67,0,474.09,474.09,0,0,0,47.68,136.11,53.35,53.35,0,0,1-47.68,77.23Z"/><path class="cls-2" d="M1663.33,651.71A53.33,53.33,0,0,1,1617.68,626c-52.48-86.61-344.32-294.29-754.35-294.29-426.66,0-654.72,217.92-701.12,294.29a53.33,53.33,0,0,1-93.1-52c.63-1.13,1.3-2.24,2-3.32C129.47,474.54,385.58,225,863.34,225c449.28,0,772.37,225.07,845.54,345.71a53.34,53.34,0,0,1-45.55,81Z"/><path class="cls-2" d="M1450,225a53.2,53.2,0,0,1-17.38-2.88c-21.34-7.36-42-15-62.4-22.5a1210.17,1210.17,0,0,0-506.89-81.28c-256,0-313.7,29.54-393.38,70.4-19.63,10.13-40.43,20.69-64.75,32A53.42,53.42,0,0,1,362,123.07c22.51-10.14,41.6-19.95,59.74-29.23,89-45.86,159.68-82.13,441.6-82.13a1314.68,1314.68,0,0,1,544,87.89c19.63,7.26,39.26,14.62,60,21.34A53.33,53.33,0,0,1,1450,225Z"/><path class="cls-2" d="M1876.66,971.71a53.34,53.34,0,0,1-50.77-37.12A1265.34,1265.34,0,0,0,1724.55,733a53.35,53.35,0,1,1,90.88-55.89h0a1346.07,1346.07,0,0,1,112,225.06,53.34,53.34,0,0,1-50.77,69.55Z"/><path class="cls-2" d="M1320.46,1276v888a40,40,0,0,1-40,40h-672a40,40,0,0,1-40-40V1276a182.64,182.64,0,0,1,92.39-158.79A182.62,182.62,0,0,0,753,968.63L788.46,336h312L1136,968.63a182.64,182.64,0,0,0,92.1,148.55A182.63,182.63,0,0,1,1320.46,1276Z"/><path class="cls-3" d="M1108.46,336h-328a16,16,0,0,1-16-16V272a56,56,0,0,1,56-56h248a56,56,0,0,1,56,56v48A16,16,0,0,1,1108.46,336Z"/><path class="cls-4" d="M568.46,1501.8h752v320h-752Z"/><path class="cls-4" d="M1200.46,1501.8h120v320h-120Z"/><path class="cls-4" d="M944.46,2034c-141.39,0-256-114.61-256-256V1538c0-141.38,114.61-256,256-256s256,114.62,256,256v240C1200.46,1919.39,1085.84,2034,944.46,2034Z"/><path d="M1348.55,1247.66a213.12,213.12,0,0,0-105.66-156.56h0a152,152,0,0,1-77-124.15l-12.3-219.17v-.08l-21.78-388.15A46,46,0,0,0,1154.46,320V272a86.1,86.1,0,0,0-86-86h-248a86.1,86.1,0,0,0-86,86v48a46,46,0,0,0,22.63,39.55L735.3,747.7v.09L723,967a152.09,152.09,0,0,1-77,124.15h0A212.75,212.75,0,0,0,538.46,1276v888a69.93,69.93,0,0,0,70,70h672a70,70,0,0,0,70-70V1276A211.11,211.11,0,0,0,1348.55,1247.66ZM1068.46,246a26,26,0,0,1,26,26v34h-300V272a26,26,0,0,1,26-26ZM816.82,366h255.27l13.49,240.33H803.34ZM598.46,1531.8h60.11c0,1.9-.09,3.78-.1,5.68,0,.18,0,.35,0,.52v240c0,4.63.13,9.23.35,13.8H598.46Zm692,632.2a10,10,0,0,1-10,10h-672a10,10,0,0,1-10-10V1851.8h69.7c32.63,122,144.11,212.2,276.3,212.2h0c132.18,0,243.66-90.16,276.3-212.2h69.7ZM853.89,1331c1.28-.56,2.55-1.14,3.84-1.67,2.17-.91,4.36-1.75,6.56-2.59s4.16-1.54,6.27-2.27c1.74-.61,3.48-1.22,5.25-1.78,3.77-1.2,7.56-2.33,11.4-3.33.22-.06.43-.13.65-.18,4.29-1.11,8.61-2.06,13-2.91,1-.2,2-.36,3-.54q5-.93,10.12-1.62c1.26-.17,2.52-.33,3.79-.48,3.26-.39,6.54-.69,9.82-.94,1.21-.09,2.42-.2,3.64-.27,4.39-.26,8.8-.42,13.21-.42h.11c4.42,0,8.82.16,13.21.42,1.23.07,2.43.18,3.65.27,3.28.25,6.55.55,9.81.94,1.27.15,2.53.31,3.8.48,3.38.46,6.76,1,10.11,1.62,1,.18,2,.34,3,.53,4.34.86,8.67,1.81,12.95,2.92l.66.18c3.83,1,7.63,2.13,11.4,3.33,1.76.56,3.5,1.17,5.25,1.78,2.1.73,4.19,1.48,6.27,2.27s4.39,1.68,6.55,2.59c1.29.53,2.56,1.11,3.84,1.67,66.13,29,115.81,88.83,130.76,161.2.06.28.11.57.17.85.66,3.25,1.24,6.54,1.76,9.84.06.37.13.75.18,1.13q.81,5.34,1.37,10.76c0,.19,0,.38,0,.57.34,3.31.58,6.65.77,10,0,.63.07,1.26.1,1.89.17,3.56.27,7.15.27,10.76v240c0,124.61-101.38,226-226,226s-226-101.38-226-226V1538c0-3.62.11-7.2.28-10.77,0-.63.06-1.25.1-1.87q.27-5,.76-10c0-.17,0-.35,0-.53q.55-5.43,1.37-10.78l.18-1.11q.78-5,1.77-9.86c0-.28.1-.56.16-.83C738.08,1419.85,787.76,1360.06,853.89,1331Zm376.22,460.79c.22-4.57.35-9.17.35-13.8V1538c0-.19,0-.37,0-.56,0-1.88-.06-3.76-.11-5.64h60.12v260Zm60.35-320h-67.77a284.2,284.2,0,0,0-37.27-87.91,29.15,29.15,0,0,0-2.29-3.07,288,288,0,0,0-97.27-91.28,29.48,29.48,0,0,0-2.74-1.73,284,284,0,0,0-52.77-22.6l-2.44-.76q-4-1.21-8-2.31c-1-.28-2.07-.58-3.11-.85q-4.85-1.27-9.75-2.37c-1.54-.34-3.09-.65-4.64-1-1.94-.4-3.88-.79-5.82-1.14q-2.56-.48-5.15-.91c-2-.34-4-.64-6.08-.93-1.51-.22-3-.46-4.53-.65-3.34-.43-6.69-.78-10-1.09-1.3-.12-2.61-.21-3.91-.32-2.56-.2-5.12-.36-7.68-.5l-3.57-.17c-3.71-.14-7.42-.24-11.14-.24h0c-3.71,0-7.43.1-11.13.24l-3.57.17c-2.57.14-5.13.3-7.68.5-1.31.11-2.61.2-3.91.32-3.36.31-6.7.66-10,1.09-1.52.19-3,.43-4.54.65-2,.29-4.05.59-6.08.93q-2.58.43-5.14.91c-2,.35-3.88.74-5.82,1.14-1.55.32-3.1.63-4.64,1q-4.9,1.1-9.76,2.37c-1,.27-2.07.57-3.1.85q-4,1.09-8,2.31l-2.44.76a283.65,283.65,0,0,0-52.76,22.6,29.64,29.64,0,0,0-2.75,1.73,288.06,288.06,0,0,0-97.27,91.28,30.6,30.6,0,0,0-2.29,3.07,284.44,284.44,0,0,0-37.27,87.91H598.46V1276a152.91,152.91,0,0,1,77.21-132.7,211.82,211.82,0,0,0,107.24-173l17.06-304h289l17.06,304a211.83,211.83,0,0,0,107.23,173,152.92,152.92,0,0,1,77.22,132.7Z"/></g></g></svg>